<svg width="680" height="520" viewBox="0 0 680 520" fill="none" xmlns="http://www.w3.org/2000/svg">
  <rect width="680" height="520" rx="24" fill="#D7F6FF"/>
  <rect x="70" y="72" width="540" height="376" rx="20" fill="#F7FDFF" stroke="#8EDCEB" stroke-width="3"/>
  <rect x="110" y="118" width="230" height="40" rx="10" fill="#E6F9FF"/>
  <rect x="110" y="176" width="190" height="20" rx="10" fill="#B7EBF6"/>
  <rect x="110" y="212" width="260" height="20" rx="10" fill="#B7EBF6"/>
  <rect x="110" y="248" width="210" height="20" rx="10" fill="#B7EBF6"/>
  <rect x="390" y="124" width="176" height="136" rx="14" fill="#E6F9FF" stroke="#8EDCEB" stroke-width="2"/>
  <rect x="412" y="148" width="132" height="14" rx="7" fill="#7FD7E9"/>
  <rect x="412" y="174" width="98" height="10" rx="5" fill="#A3E4F2"/>
  <path d="M424 228L448 202L468 218L500 182L528 210" stroke="#1B8CA6" stroke-width="7" stroke-linecap="round" stroke-linejoin="round"/>
  <circle cx="528" cy="210" r="9" fill="#1B8CA6"/>
  <rect x="110" y="304" width="456" height="100" rx="14" fill="#E6F9FF"/>
  <rect x="132" y="330" width="172" height="16" rx="8" fill="#A3E4F2"/>
  <rect x="132" y="356" width="240" height="12" rx="6" fill="#BFEFF8"/>
  <rect x="398" y="328" width="146" height="18" rx="9" fill="#78D4E8"/>
  <rect x="398" y="356" width="102" height="12" rx="6" fill="#A3E4F2"/>
</svg>
